<!-- https://htmlformatter.com/ -->
<svg xmlns="http://www.w3.org/2000/svg" class="logo__flower-of-life" viewBox="17 -1 272 305" width="816" height="915">
	<g fill="none" stroke-width="2.7px" stroke="rgb(234, 198, 3)">
		<circle r="30" cx="49" cy="92.5"></circle>
		<circle r="30" cx="49" cy="122.5"></circle>
		<circle r="30" cx="49" cy="152.5"></circle>
		<circle r="30" cx="49" cy="182.5"></circle>
		<circle r="30" cx="49" cy="212.5"></circle>
		<circle r="30" cx="75" cy="77.5"></circle>
		<circle r="30" cx="75" cy="107.5"></circle>
		<circle r="30" cx="75" cy="137.5"></circle>
		<circle r="30" cx="75" cy="167.5"></circle>
		<circle r="30" cx="75" cy="197.5"></circle>
		<circle r="30" cx="75" cy="227.5"></circle>
		<circle r="30" cx="101" cy="62.5"></circle>
		<circle r="30" cx="101" cy="92.5"></circle>
		<circle r="30" cx="101" cy="122.5"></circle>
		<circle r="30" cx="101" cy="152.5"></circle>
		<circle r="30" cx="101" cy="182.5"></circle>
		<circle r="30" cx="101" cy="212.5"></circle>
		<circle r="30" cx="101" cy="242.5"></circle>
		<circle r="30" cx="127" cy="47.5"></circle>
		<circle r="30" cx="127" cy="77.5"></circle>
		<circle r="30" cx="127" cy="107.5"></circle>
		<circle r="30" cx="127" cy="137.5"></circle>
		<circle r="30" cx="127" cy="167.5"></circle>
		<circle r="30" cx="127" cy="197.5"></circle>
		<circle r="30" cx="127" cy="227.5"></circle>
		<circle r="30" cx="127" cy="257.5"></circle>
		<circle r="30" cx="153" cy="32.5"></circle>
		<circle r="30" cx="153" cy="62.5"></circle>
		<circle r="30" cx="153" cy="92.5"></circle>
		<circle r="30" cx="153" cy="122.5"></circle>
		<circle r="30" cx="153" cy="152.5"></circle>
		<circle r="30" cx="153" cy="182.5"></circle>
		<circle r="30" cx="153" cy="212.5"></circle>
		<circle r="30" cx="153" cy="242.5"></circle>
		<circle r="30" cx="153" cy="272.5"></circle>
		<circle r="30" cx="179" cy="47.5"></circle>
		<circle r="30" cx="179" cy="77.5"></circle>
		<circle r="30" cx="179" cy="107.5"></circle>
		<circle r="30" cx="179" cy="137.5"></circle>
		<circle r="30" cx="179" cy="167.5"></circle>
		<circle r="30" cx="179" cy="197.5"></circle>
		<circle r="30" cx="179" cy="227.5"></circle>
		<circle r="30" cx="179" cy="257.5"></circle>
		<circle r="30" cx="205" cy="62.5"></circle>
		<circle r="30" cx="205" cy="92.5"></circle>
		<circle r="30" cx="205" cy="122.5"></circle>
		<circle r="30" cx="205" cy="152.5"></circle>
		<circle r="30" cx="205" cy="182.5"></circle>
		<circle r="30" cx="205" cy="212.5"></circle>
		<circle r="30" cx="205" cy="242.5"></circle>
		<circle r="30" cx="231" cy="77.5"></circle>
		<circle r="30" cx="231" cy="107.5"></circle>
		<circle r="30" cx="231" cy="137.5"></circle>
		<circle r="30" cx="231" cy="167.5"></circle>
		<circle r="30" cx="231" cy="197.5"></circle>
		<circle r="30" cx="231" cy="227.5"></circle>
		<circle r="30" cx="257" cy="92.5"></circle>
		<circle r="30" cx="257" cy="122.5"></circle>
		<circle r="30" cx="257" cy="152.5"></circle>
		<circle r="30" cx="257" cy="182.5"></circle>
		<circle r="30" cx="257" cy="212.5"></circle>
	</g>
</svg>
