<svg xmlns="http://www.w3.org/2000/svg" class="logo__flower-of-life" viewBox="0 0 609 609"><g fill="none" stroke-width="6.9px" stroke="rgb(234, 198, 3)"><circle r="60" cx="98" cy="184.5"></circle><circle r="60" cx="98" cy="244.5"></circle><circle r="60" cx="98" cy="304.5"></circle><circle r="60" cx="98" cy="364.5"></circle><circle r="60" cx="98" cy="424.5"></circle><circle r="60" cx="150" cy="154.5"></circle><circle r="60" cx="150" cy="214.5"></circle><circle r="60" cx="150" cy="274.5"></circle><circle r="60" cx="150" cy="334.5"></circle><circle r="60" cx="150" cy="394.5"></circle><circle r="60" cx="150" cy="454.5"></circle><circle r="60" cx="202" cy="124.5"></circle><circle r="60" cx="202" cy="184.5"></circle><circle r="60" cx="202" cy="244.5"></circle><circle r="60" cx="202" cy="304.5"></circle><circle r="60" cx="202" cy="364.5"></circle><circle r="60" cx="202" cy="424.5"></circle><circle r="60" cx="202" cy="484.5"></circle><circle r="60" cx="254" cy="94.5"></circle><circle r="60" cx="254" cy="154.5"></circle><circle r="60" cx="254" cy="214.5"></circle><circle r="60" cx="254" cy="274.5"></circle><circle r="60" cx="254" cy="334.5"></circle><circle r="60" cx="254" cy="394.5"></circle><circle r="60" cx="254" cy="454.5"></circle><circle r="60" cx="254" cy="514.5"></circle><circle r="60" cx="306" cy="64.5"></circle><circle r="60" cx="306" cy="124.5"></circle><circle r="60" cx="306" cy="184.5"></circle><circle r="60" cx="306" cy="244.5"></circle><circle r="60" cx="306" cy="304.5"></circle><circle r="60" cx="306" cy="364.5"></circle><circle r="60" cx="306" cy="424.5"></circle><circle r="60" cx="306" cy="484.5"></circle><circle r="60" cx="306" cy="544.5"></circle><circle r="60" cx="358" cy="94.5"></circle><circle r="60" cx="358" cy="154.5"></circle><circle r="60" cx="358" cy="214.5"></circle><circle r="60" cx="358" cy="274.5"></circle><circle r="60" cx="358" cy="334.5"></circle><circle r="60" cx="358" cy="394.5"></circle><circle r="60" cx="358" cy="454.5"></circle><circle r="60" cx="358" cy="514.5"></circle><circle r="60" cx="410" cy="124.5"></circle><circle r="60" cx="410" cy="184.5"></circle><circle r="60" cx="410" cy="244.5"></circle><circle r="60" cx="410" cy="304.5"></circle><circle r="60" cx="410" cy="364.5"></circle><circle r="60" cx="410" cy="424.5"></circle><circle r="60" cx="410" cy="484.5"></circle><circle r="60" cx="462" cy="154.5"></circle><circle r="60" cx="462" cy="214.5"></circle><circle r="60" cx="462" cy="274.5"></circle><circle r="60" cx="462" cy="334.5"></circle><circle r="60" cx="462" cy="394.5"></circle><circle r="60" cx="462" cy="454.5"></circle><circle r="60" cx="514" cy="184.5"></circle><circle r="60" cx="514" cy="244.5"></circle><circle r="60" cx="514" cy="304.5"></circle><circle r="60" cx="514" cy="364.5"></circle><circle r="60" cx="514" cy="424.5"></circle></g></svg>