<svg xmlns="http://www.w3.org/2000/svg" class="logo__flower-of-life" viewBox="0 0 609 609"><g fill="none" stroke-width="6.9px" stroke="rgb(234, 198, 3)"><circle r="60" cx="98" cy="184.5"></circle><circle r="60" cx="98" cy="424.5"></circle><circle r="60" cx="202" cy="244.5"></circle><circle r="60" cx="202" cy="364.5"></circle><circle r="60" cx="306" cy="64.5"></circle><circle r="60" cx="306" cy="184.5"></circle><circle r="60" cx="306" cy="304.5"></circle><circle r="60" cx="306" cy="424.5"></circle><circle r="60" cx="306" cy="544.5"></circle><circle r="60" cx="410" cy="244.5"></circle><circle r="60" cx="410" cy="364.5"></circle><circle r="60" cx="514" cy="184.5"></circle><circle r="60" cx="514" cy="424.5"></circle><circle r="2" cx="306" cy="66.7" fill="rgb(234, 198, 3)"></circle><line x1="306" y1="63.5" x2="306" y2="544.5"></line><line x1="306" y1="64.5" x2="98" y2="424.5"></line><line x1="306" y1="64.5" x2="514" y2="424.5"></line><circle r="2" cx="100" cy="185.4" fill="rgb(234, 198, 3)"></circle><line x1="98" y1="184.5" x2="306" y2="544.5"></line><line x1="98" y1="184.5" x2="514" y2="424.5"></line><line x1="98" y1="184.5" x2="514" y2="184.5"></line><circle r="2" cx="512" cy="185.5" fill="rgb(234, 198, 3)"></circle><line x1="514" y1="184.5" x2="98" y2="424.5"></line><line x1="514" y1="184.5" x2="306" y2="544.5"></line><circle r="2" cx="100" cy="423.5" fill="rgb(234, 198, 3)"></circle><line x1="98" y1="424.5" x2="514" y2="424.5"></line><circle r="2" cx="512" cy="423.5" fill="rgb(234, 198, 3)"></circle><circle r="2" cx="306" cy="542.3" fill="rgb(234, 198, 3)"></circle><line x1="306" y1="184.5" x2="410" y2="364.5"></line><line x1="306" y1="184.5" x2="202" y2="364.5"></line><line x1="202" y1="244.5" x2="410" y2="244.5"></line><line x1="202" y1="244.5" x2="306" y2="424.5"></line><line x1="410" y1="244.5" x2="306" y2="424.5"></line><line x1="202" y1="364.5" x2="410" y2="364.5"></line></g></svg>