<svg xmlns="http://www.w3.org/2000/svg" class="logo__flower-of-life" viewBox="0 0 609 609"><g fill="none" stroke-width="5.4px" stroke="rgb(234, 198, 3)"><circle r="60" cx="97" cy="184.5"></circle><circle r="60" cx="97" cy="244.5"></circle><circle r="60" cx="97" cy="304.5"></circle><circle r="60" cx="97" cy="364.5"></circle><circle r="60" cx="97" cy="424.5"></circle><circle r="60" cx="149" cy="154.5"></circle><circle r="60" cx="149" cy="214.5"></circle><circle r="60" cx="149" cy="274.5"></circle><circle r="60" cx="149" cy="334.5"></circle><circle r="60" cx="149" cy="394.5"></circle><circle r="60" cx="149" cy="454.5"></circle><circle r="60" cx="201" cy="124.5"></circle><circle r="60" cx="201" cy="184.5"></circle><circle r="60" cx="201" cy="244.5"></circle><circle r="60" cx="201" cy="304.5"></circle><circle r="60" cx="201" cy="364.5"></circle><circle r="60" cx="201" cy="424.5"></circle><circle r="60" cx="201" cy="484.5"></circle><circle r="60" cx="253" cy="94.5"></circle><circle r="60" cx="253" cy="154.5"></circle><circle r="60" cx="253" cy="214.5"></circle><circle r="60" cx="253" cy="274.5"></circle><circle r="60" cx="253" cy="334.5"></circle><circle r="60" cx="253" cy="394.5"></circle><circle r="60" cx="253" cy="454.5"></circle><circle r="60" cx="253" cy="514.5"></circle><circle r="60" cx="305" cy="64.5"></circle><circle r="60" cx="305" cy="124.5"></circle><circle r="60" cx="305" cy="184.5"></circle><circle r="60" cx="305" cy="244.5"></circle><circle r="60" cx="305" cy="304.5"></circle><circle r="60" cx="305" cy="364.5"></circle><circle r="60" cx="305" cy="424.5"></circle><circle r="60" cx="305" cy="484.5"></circle><circle r="60" cx="305" cy="544.5"></circle><circle r="60" cx="357" cy="94.5"></circle><circle r="60" cx="357" cy="154.5"></circle><circle r="60" cx="357" cy="214.5"></circle><circle r="60" cx="357" cy="274.5"></circle><circle r="60" cx="357" cy="334.5"></circle><circle r="60" cx="357" cy="394.5"></circle><circle r="60" cx="357" cy="454.5"></circle><circle r="60" cx="357" cy="514.5"></circle><circle r="60" cx="409" cy="124.5"></circle><circle r="60" cx="409" cy="184.5"></circle><circle r="60" cx="409" cy="244.5"></circle><circle r="60" cx="409" cy="304.5"></circle><circle r="60" cx="409" cy="364.5"></circle><circle r="60" cx="409" cy="424.5"></circle><circle r="60" cx="409" cy="484.5"></circle><circle r="60" cx="461" cy="154.5"></circle><circle r="60" cx="461" cy="214.5"></circle><circle r="60" cx="461" cy="274.5"></circle><circle r="60" cx="461" cy="334.5"></circle><circle r="60" cx="461" cy="394.5"></circle><circle r="60" cx="461" cy="454.5"></circle><circle r="60" cx="513" cy="184.5"></circle><circle r="60" cx="513" cy="244.5"></circle><circle r="60" cx="513" cy="304.5"></circle><circle r="60" cx="513" cy="364.5"></circle><circle r="60" cx="513" cy="424.5"></circle><circle r="300" cx="304.5" cy="304.5"></circle></g></svg>