<svg xmlns="http://www.w3.org/2000/svg" class="logo__flower-of-life" viewBox="17 -1 272 305" width="816" height="915"><g fill="none" stroke-width="2.7px" stroke="rgb(234, 198, 3)"><circle r="0.9" cx="153" cy="33.4" fill="rgb(234, 198, 3)"></circle><line x1="153" y1="31.5" x2="153" y2="273.5"></line><line x1="153" y1="32.5" x2="49" y2="212.5"></line><line x1="153" y1="32.5" x2="257" y2="212.5"></line><circle r="0.9" cx="50" cy="93" fill="rgb(234, 198, 3)"></circle><line x1="49" y1="92.5" x2="153" y2="272.5"></line><line x1="49" y1="92.5" x2="257" y2="212.5"></line><line x1="49" y1="92.5" x2="257" y2="92.5"></line><circle r="0.9" cx="256.2" cy="93" fill="rgb(234, 198, 3)"></circle><line x1="257" y1="92" x2="49" y2="212.5"></line><line x1="257" y1="92" x2="153" y2="272.5"></line><circle r="0.9" cx="50" cy="212" fill="rgb(234, 198, 3)"></circle><line x1="49" y1="212.5" x2="257" y2="212.5"></line><circle r="0.9" cx="256.2" cy="212" fill="rgb(234, 198, 3)"></circle><circle r="0.9" cx="153" cy="271.6" fill="rgb(234, 198, 3)"></circle><line x1="153" y1="92.5" x2="205" y2="182.5"></line><line x1="153" y1="92.5" x2="101" y2="182.5"></line><line x1="101" y1="122.5" x2="205" y2="122.5"></line><line x1="101" y1="122.5" x2="153" y2="212.5"></line><line x1="205" y1="122.5" x2="153" y2="212.5"></line><line x1="101" y1="182.5" x2="205" y2="182.5"></line></g></svg>