<svg xmlns="http://www.w3.org/2000/svg" class="logo__flower-of-life" viewBox="-269.006 -306 538.013 615">
  <g fill="none" stroke-width="6.3px" stroke="rgb(234, 198, 3)">
    <circle cy="-250" r="50"></circle>
    <circle cx="43.301" cy="-225" r="50"></circle>
    <circle cx="86.603" cy="-200" r="50"></circle>
    <circle cx="129.904" cy="-175" r="50"></circle>
    <circle cx="173.205" cy="-150" r="50"></circle>
    <circle cx="216.506" cy="-125" r="50"></circle>
    <circle cx="-43.301" cy="-225" r="50"></circle>
    <circle cy="-200" r="50"></circle>
    <circle cx="43.301" cy="-175" r="50"></circle>
    <circle cx="86.603" cy="-150" r="50"></circle>
    <circle cx="129.904" cy="-125" r="50"></circle>
    <circle cx="173.205" cy="-100" r="50"></circle>
    <circle cx="216.506" cy="-75" r="50"></circle>
    <circle cx="-86.603" cy="-200" r="50"></circle>
    <circle cx="-43.301" cy="-175" r="50"></circle>
    <circle cy="-150" r="50"></circle>
    <circle cx="43.301" cy="-125" r="50"></circle>
    <circle cx="86.603" cy="-100" r="50"></circle>
    <circle cx="129.904" cy="-75" r="50"></circle>
    <circle cx="173.205" cy="-50" r="50"></circle>
    <circle cx="216.506" cy="-25" r="50"></circle>
    <circle cx="-129.904" cy="-175" r="50"></circle>
    <circle cx="-86.603" cy="-150" r="50"></circle>
    <circle cx="-43.301" cy="-125" r="50"></circle>
    <circle cy="-100" r="50"></circle>
    <circle cx="43.301" cy="-75" r="50"></circle>
    <circle cx="86.603" cy="-50" r="50"></circle>
    <circle cx="129.904" cy="-25" r="50"></circle>
    <circle cx="173.205" r="50"></circle>
    <circle cx="216.506" cy="25" r="50"></circle>
    <circle cx="-173.205" cy="-150" r="50"></circle>
    <circle cx="-129.904" cy="-125" r="50"></circle>
    <circle cx="-86.603" cy="-100" r="50"></circle>
    <circle cx="-43.301" cy="-75" r="50"></circle>
    <circle cy="-50" r="50"></circle>
    <circle cx="43.301" cy="-25" r="50"></circle>
    <circle cx="86.603" r="50"></circle>
    <circle cx="129.904" cy="25" r="50"></circle>
    <circle cx="173.205" cy="50" r="50"></circle>
    <circle cx="216.506" cy="75" r="50"></circle>
    <circle cx="-216.506" cy="-125" r="50"></circle>
    <circle cx="-173.205" cy="-100" r="50"></circle>
    <circle cx="-129.904" cy="-75" r="50"></circle>
    <circle cx="-86.603" cy="-50" r="50"></circle>
    <circle cx="-43.301" cy="-25" r="50"></circle>
    <circle r="50"></circle>
    <circle cx="43.301" cy="25" r="50"></circle>
    <circle cx="86.603" cy="50" r="50"></circle>
    <circle cx="129.904" cy="75" r="50"></circle>
    <circle cx="173.205" cy="100" r="50"></circle>
    <circle cx="216.506" cy="125" r="50"></circle>
    <circle cx="-216.506" cy="-75" r="50"></circle>
    <circle cx="-173.205" cy="-50" r="50"></circle>
    <circle cx="-129.904" cy="-25" r="50"></circle>
    <circle cx="-86.603" r="50"></circle>
    <circle cx="-43.301" cy="25" r="50"></circle>
    <circle cy="50" r="50"></circle>
    <circle cx="43.301" cy="75" r="50"></circle>
    <circle cx="86.603" cy="100" r="50"></circle>
    <circle cx="129.904" cy="125" r="50"></circle>
    <circle cx="173.205" cy="150" r="50"></circle>
    <circle cx="-216.506" cy="-25" r="50"></circle>
    <circle cx="-173.205" r="50"></circle>
    <circle cx="-129.904" cy="25" r="50"></circle>
    <circle cx="-86.603" cy="50" r="50"></circle>
    <circle cx="-43.301" cy="75" r="50"></circle>
    <circle cy="100" r="50"></circle>
    <circle cx="43.301" cy="125" r="50"></circle>
    <circle cx="86.603" cy="150" r="50"></circle>
    <circle cx="129.904" cy="175" r="50"></circle>
    <circle cx="-216.506" cy="25" r="50"></circle>
    <circle cx="-173.205" cy="50" r="50"></circle>
    <circle cx="-129.904" cy="75" r="50"></circle>
    <circle cx="-86.603" cy="100" r="50"></circle>
    <circle cx="-43.301" cy="125" r="50"></circle>
    <circle cy="150" r="50"></circle>
    <circle cx="43.301" cy="175" r="50"></circle>
    <circle cx="86.603" cy="200" r="50"></circle>
    <circle cx="-216.506" cy="75" r="50"></circle>
    <circle cx="-173.205" cy="100" r="50"></circle>
    <circle cx="-129.904" cy="125" r="50"></circle>
    <circle cx="-86.603" cy="150" r="50"></circle>
    <circle cx="-43.301" cy="175" r="50"></circle>
    <circle cy="200" r="50"></circle>
    <circle cx="43.301" cy="225" r="50"></circle>
    <circle cx="-216.506" cy="125" r="50"></circle>
    <circle cx="-173.205" cy="150" r="50"></circle>
    <circle cx="-129.904" cy="175" r="50"></circle>
    <circle cx="-86.603" cy="200" r="50"></circle>
    <circle cx="-43.301" cy="225" r="50"></circle>
    <circle cy="250" r="50"></circle>
    <path d="M43.301-275a50 50 0 0 1-86.602 0M259.808-100a50 50 0 0 1-43.302-75"></path>
    <path d="M86.603-250A50 50 0 0 1 0-300"></path>
    <path d="M0-300a50 50 0 1 1-86.603 50M129.904-225A50 50 0 0 1 43.3-275"></path>
    <path d="M173.205-200a50 50 0 0 1-86.602-50"></path>
    <path d="M216.506-175a50 50 0 0 1-86.602-50"></path>
    <path d="M259.808-150a50 50 0 0 1-86.603-50"></path>
    <path d="M259.808-50a50 50 0 1 1 0-100M-43.301-275a50 50 0 1 1-86.603 50"></path>
    <path d="M259.808 0a50 50 0 1 1 0-100M-86.603-250a50 50 0 1 1-86.602 50"></path>
    <path d="M259.808 50a50 50 0 1 1 0-100M-129.904-225a50 50 0 1 1-86.602 50"></path>
    <path d="M259.808 100a50 50 0 1 1 0-100M-216.506-175a50 50 0 0 1-43.302 75"></path>
    <path d="M-259.808-150a50 50 0 1 1 0 100"></path>
    <path d="M-173.205-200a50 50 0 1 1-86.603 50M173.205 200a50 50 0 1 1 86.603-50"></path>
    <path d="M259.808 150a50 50 0 1 1 0-100"></path>
    <path d="M216.506 175a50 50 0 0 1 43.302-75M-259.808-100a50 50 0 1 1 0 100"></path>
    <path d="M129.904 225a50 50 0 1 1 86.602-50M-259.808-50a50 50 0 1 1 0 100"></path>
    <path d="M86.603 250a50 50 0 1 1 86.602-50M-259.808 0a50 50 0 1 1 0 100"></path>
    <path d="M43.301 275a50 50 0 1 1 86.603-50M-259.808 150a50 50 0 0 1 86.603 50"></path>
    <path d="M-259.808 50a50 50 0 1 1 0 100M-216.506 175a50 50 0 0 1 86.602 50"></path>
    <path d="M-173.205 200a50 50 0 0 1 86.602 50"></path>
    <path d="M-129.904 225A50 50 0 0 1-43.3 275"></path>
    <path d="M-86.603 250A50 50 0 0 1 0 300"></path>
    <path d="M0 300a50 50 0 1 1 86.603-50M-259.808 100a50 50 0 0 1 43.302 75"></path>
    <path d="M-43.301 275a50 50 0 0 1 86.602 0"></path>
  </g>
</svg>
